<?xml version="1.0" encoding="UTF-8" standalone="no"?>
<!DOCTYPE svg PUBLIC "-//W3C//DTD SVG 1.0//EN" "http://www.w3.org/TR/2001/PR-SVG-20010719/DTD/svg10.dtd">
<svg width="123cm" height="51cm" viewBox="19 -241 2443 1011" xmlns="http://www.w3.org/2000/svg" xmlns:xlink="http://www.w3.org/1999/xlink">
  <g id="Background">
    <g>
      <path style="fill: #ffffff; fill-opacity: 1; stroke-opacity: 1; stroke-width: 2; stroke: #000000" fill-rule="evenodd" d="M 200 129 C 228,114 242,109 270,109 C 298,109 312,114 340,129 L 340,209 C 312,224 298,229 270,229 C 242,229 228,224 200,209 L 200,129z"/>
      <path style="fill: none; stroke-opacity: 1; stroke-width: 2; stroke: #000000" d="M 200 129 C 228,144 242,149 270,149 C 298,149 312,144 340,129"/>
      <text font-size="12.7998" style="fill: #000000; fill-opacity: 1; stroke: none;text-anchor:middle;font-family:sans-serif;font-style:normal;font-weight:normal" x="270" y="183">
        <tspan x="270" y="183">expressionSet</tspan>
      </text>
    </g>
    <g>
      <rect style="fill: #ffffff; fill-opacity: 1; stroke-opacity: 1; stroke-width: 2; stroke: #000000" x="20" y="11" width="100" height="89" rx="0" ry="0"/>
      <text font-size="12.7998" style="fill: #000000; fill-opacity: 1; stroke: none;text-anchor:middle;font-family:sans-serif;font-style:normal;font-weight:normal" x="70" y="59.4">
        <tspan x="70" y="59.4">counts</tspan>
      </text>
    </g>
    <g>
      <rect style="fill: #ffffff; fill-opacity: 1; stroke-opacity: 1; stroke-width: 2; stroke: #000000" x="20" y="124" width="100" height="89" rx="0" ry="0"/>
      <text font-size="12.7998" style="fill: #000000; fill-opacity: 1; stroke: none;text-anchor:middle;font-family:sans-serif;font-style:normal;font-weight:normal" x="70" y="172.4">
        <tspan x="70" y="172.4">metadata</tspan>
      </text>
    </g>
    <g>
      <rect style="fill: #ffffff; fill-opacity: 1; stroke-opacity: 1; stroke-width: 2; stroke: #000000" x="20" y="240" width="100" height="89" rx="0" ry="0"/>
      <text font-size="12.7998" style="fill: #000000; fill-opacity: 1; stroke: none;text-anchor:middle;font-family:sans-serif;font-style:normal;font-weight:normal" x="70" y="288.4">
        <tspan x="70" y="288.4">annotations</tspan>
      </text>
    </g>
    <g>
      <line style="fill: none; stroke-opacity: 1; stroke-width: 2; stroke: #000000" x1="120" y1="55.5" x2="192.149" y2="126.296"/>
      <polygon style="fill: #000000; fill-opacity: 1; stroke-opacity: 1; stroke-width: 2; stroke: #000000" fill-rule="evenodd" points="188.647,129.865 199.286,133.3 195.65,122.727 "/>
    </g>
    <g>
      <line style="fill: none; stroke-opacity: 1; stroke-width: 2; stroke: #000000" x1="120" y1="168.5" x2="189.077" y2="160.297"/>
      <polygon style="fill: #000000; fill-opacity: 1; stroke-opacity: 1; stroke-width: 2; stroke: #000000" fill-rule="evenodd" points="189.666,165.262 199.007,159.118 188.487,155.332 "/>
    </g>
    <g>
      <line style="fill: none; stroke-opacity: 1; stroke-width: 2; stroke: #000000" x1="120" y1="284.5" x2="193.149" y2="192.606"/>
      <polygon style="fill: #000000; fill-opacity: 1; stroke-opacity: 1; stroke-width: 2; stroke: #000000" fill-rule="evenodd" points="197.061,195.72 199.377,184.782 189.237,189.492 "/>
    </g>
    <g>
      <path style="fill: none; stroke-opacity: 1; stroke-width: 2; stroke: #000000" d="M 340,184 A 113.85,113.85 0 0 0 459.467,191.75"/>
      <polygon style="fill: #000000; fill-opacity: 1; stroke-opacity: 1; stroke-width: 2; stroke: #000000" fill-rule="evenodd" points="462.477,196.386 468.052,186.695 456.954,188.05 "/>
    </g>
    <g>
      <path style="fill: none; stroke-opacity: 1; stroke-width: 2; stroke: #000000" d="M 340,159 A 82.0413,82.0413 0 0 1 461.134,143.984"/>
      <polygon style="fill: #000000; fill-opacity: 1; stroke-opacity: 1; stroke-width: 2; stroke: #000000" fill-rule="evenodd" points="457.863,146.734 468.225,150.935 465.369,140.126 "/>
    </g>
    <text font-size="13.5467" style="fill: #000000; fill-opacity: 1; stroke: none;text-anchor:start;font-family:Arial;font-style:normal;font-weight:normal" x="345" y="99">
      <tspan xml:space="preserve" x="345" y="99">           counts </tspan>
      <tspan x="345" y="115.933">(potentially normalized)</tspan>
    </text>
    <text font-size="13.5467" style="fill: #000000; fill-opacity: 1; stroke: none;text-anchor:start;font-family:Arial;font-style:normal;font-weight:normal" x="348" y="218">
      <tspan xml:space="preserve" x="348" y="218">         metadata</tspan>
      <tspan x="348" y="234.933">(factors of interest and/or</tspan>
      <tspan xml:space="preserve" x="348" y="251.867"> known surrogates)</tspan>
    </text>
    <text font-size="13.5467" style="fill: #000000; fill-opacity: 1; stroke: none;text-anchor:start;font-family:Arial;font-style:normal;font-weight:normal" x="420" y="220">
      <tspan x="420" y="220"></tspan>
    </text>
    <g>
      <polygon style="fill: #ffffff; fill-opacity: 1; stroke-opacity: 1; stroke-width: 2; stroke: #000000" fill-rule="evenodd" points="555.542,100 671.083,168.914 555.542,237.828 440,168.914 "/>
      <text font-size="12.7998" style="fill: #000000; fill-opacity: 1; stroke: none;text-anchor:middle;font-family:sans-serif;font-style:normal;font-weight:normal" x="555.542" y="156.814">
        <tspan x="555.542" y="156.814">Counts and</tspan>
        <tspan x="555.542" y="172.814">which metadata </tspan>
        <tspan x="555.542" y="188.814">is used?</tspan>
      </text>
    </g>
    <g>
      <line style="fill: none; stroke-opacity: 1; stroke-width: 2; stroke: #000000" x1="584.427" y1="117.229" x2="700.257" y2="12.8919"/>
      <polygon style="fill: #000000; fill-opacity: 1; stroke-opacity: 1; stroke-width: 2; stroke: #000000" fill-rule="evenodd" points="703.604,16.6069 707.687,6.19906 696.911,9.17682 "/>
    </g>
    <g>
      <ellipse style="fill: #ffffff; fill-opacity: 1; stroke-opacity: 1; stroke-width: 2; stroke: #000000" cx="777.067" cy="-46.4664" rx="97.0673" ry="73.5336"/>
      <text font-size="12.7998" style="fill: #000000; fill-opacity: 1; stroke: none;text-anchor:middle;font-family:sans-serif;font-style:normal;font-weight:normal" x="777.067" y="-50.5664">
        <tspan x="777.067" y="-50.5664">linear model fit,</tspan>
        <tspan x="777.067" y="-34.5664">residuals</tspan>
      </text>
    </g>
    <g>
      <line style="fill: none; stroke-opacity: 1; stroke-width: 2; stroke: #000000" x1="874.135" y1="-46.4664" x2="1329.21" y2="42.8808"/>
      <polygon style="fill: #000000; fill-opacity: 1; stroke-opacity: 1; stroke-width: 2; stroke: #000000" fill-rule="evenodd" points="1328.24,47.7871 1339.02,44.8073 1330.17,37.9744 "/>
    </g>
    <g>
      <path style="fill: #ffffff; fill-opacity: 1; stroke-opacity: 1; stroke-width: 2; stroke: #000000" fill-rule="evenodd" d="M 1340 40 C 1368,25 1382,20 1410,20 C 1438,20 1452,25 1480,40 L 1480,120 C 1452,135 1438,140 1410,140 C 1382,140 1368,135 1340,120 L 1340,40z"/>
      <path style="fill: none; stroke-opacity: 1; stroke-width: 2; stroke: #000000" d="M 1340 40 C 1368,55 1382,60 1410,60 C 1438,60 1452,55 1480,40"/>
      <text font-size="12.7998" style="fill: #000000; fill-opacity: 1; stroke: none;text-anchor:middle;font-family:sans-serif;font-style:normal;font-weight:normal" x="1410" y="94">
        <tspan x="1410" y="94">pseudocounts</tspan>
      </text>
    </g>
    <g>
      <line style="fill: none; stroke-opacity: 1; stroke-width: 2; stroke: #000000" x1="671.083" y1="168.914" x2="749" y2="169.457"/>
      <polygon style="fill: #000000; fill-opacity: 1; stroke-opacity: 1; stroke-width: 2; stroke: #000000" fill-rule="evenodd" points="748.965,174.457 759,169.527 749.035,164.457 "/>
    </g>
    <g>
      <ellipse style="fill: #ffffff; fill-opacity: 1; stroke-opacity: 1; stroke-width: 2; stroke: #000000" cx="857.067" cy="169.534" rx="97.0673" ry="73.5336"/>
      <text font-size="12.7998" style="fill: #000000; fill-opacity: 1; stroke: none;text-anchor:middle;font-family:sans-serif;font-style:normal;font-weight:normal" x="857.067" y="165.434">
        <tspan x="857.067" y="165.434">ComBat</tspan>
        <tspan x="857.067" y="181.434">(prior/scale)</tspan>
      </text>
    </g>
    <g>
      <line style="fill: none; stroke-opacity: 1; stroke-width: 2; stroke: #000000" x1="954.135" y1="169.534" x2="1329.35" y2="72.7475"/>
      <polygon style="fill: #000000; fill-opacity: 1; stroke-opacity: 1; stroke-width: 2; stroke: #000000" fill-rule="evenodd" points="1330.6,77.589 1339.03,70.2498 1328.1,67.906 "/>
    </g>
    <g>
      <ellipse style="fill: #ffffff; fill-opacity: 1; stroke-opacity: 1; stroke-width: 2; stroke: #000000" cx="837.067" cy="353.534" rx="97.0673" ry="73.5336"/>
      <text font-size="12.7998" style="fill: #000000; fill-opacity: 1; stroke: none;text-anchor:middle;font-family:sans-serif;font-style:normal;font-weight:normal" x="837.067" y="349.434">
        <tspan x="837.067" y="349.434">RUV/PCA and</tspan>
        <tspan x="837.067" y="365.434">similar methods</tspan>
      </text>
    </g>
    <g>
      <line style="fill: none; stroke-opacity: 1; stroke-width: 2; stroke: #000000" x1="613.312" y1="203.371" x2="759.135" y2="295.655"/>
      <polygon style="fill: #000000; fill-opacity: 1; stroke-opacity: 1; stroke-width: 2; stroke: #000000" fill-rule="evenodd" points="756.462,299.88 767.585,301.003 761.809,291.43 "/>
    </g>
    <text font-size="13.5467" style="fill: #000000; fill-opacity: 1; stroke: none;text-anchor:start;font-family:Arial;font-style:normal;font-weight:normal" x="220" y="-120">
      <tspan x="220" y="-120">Factor of 'batches'</tspan>
      <tspan x="220" y="-103.067"></tspan>
      <tspan x="220" y="-86.1333">Null model,</tspan>
      <tspan x="220" y="-69.2">conditional and/or</tspan>
      <tspan x="220" y="-52.2667">batch models</tspan>
      <tspan x="220" y="-35.3333"></tspan>
      <tspan x="220" y="-18.4">'B' potentially including</tspan>
      <tspan x="220" y="-1.46667">confounded factors</tspan>
    </text>
    <g>
      <line style="fill: none; stroke-opacity: 1; stroke-width: 2; stroke: #000000" x1="926.746" y1="325.394" x2="1330.39" y2="100.356"/>
      <polygon style="fill: #000000; fill-opacity: 1; stroke-opacity: 1; stroke-width: 2; stroke: #000000" fill-rule="evenodd" points="1332.83,104.724 1339.13,95.4869 1327.96,95.9893 "/>
    </g>
    <g>
      <line style="fill: none; stroke-opacity: 1; stroke-width: 2; stroke: #000000" x1="934.135" y1="353.534" x2="1009.88" y2="385.7"/>
      <polygon style="fill: #000000; fill-opacity: 1; stroke-opacity: 1; stroke-width: 2; stroke: #000000" fill-rule="evenodd" points="1007.92,390.302 1019.08,389.609 1011.83,381.098 "/>
    </g>
    <g>
      <path style="fill: #ffffff; fill-opacity: 1; stroke-opacity: 1; stroke-width: 2; stroke: #000000" fill-rule="evenodd" d="M 1020 360 C 1048,345 1062,340 1090,340 C 1118,340 1132,345 1160,360 L 1160,440 C 1132,455 1118,460 1090,460 C 1062,460 1048,455 1020,440 L 1020,360z"/>
      <path style="fill: none; stroke-opacity: 1; stroke-width: 2; stroke: #000000" d="M 1020 360 C 1048,375 1062,380 1090,380 C 1118,380 1132,375 1160,360"/>
      <text font-size="12.7998" style="fill: #000000; fill-opacity: 1; stroke: none;text-anchor:middle;font-family:sans-serif;font-style:normal;font-weight:normal" x="1090" y="398">
        <tspan x="1090" y="398">floating point</tspan>
        <tspan x="1090" y="414">surrogate</tspan>
        <tspan x="1090" y="430">matrix</tspan>
      </text>
    </g>
    <g>
      <ellipse style="fill: #ffffff; fill-opacity: 1; stroke-opacity: 1; stroke-width: 2; stroke: #000000" cx="1297.07" cy="293.534" rx="97.0673" ry="73.5336"/>
      <text font-size="12.7998" style="fill: #000000; fill-opacity: 1; stroke: none;text-anchor:middle;font-family:sans-serif;font-style:normal;font-weight:normal" x="1297.07" y="289.434">
        <tspan x="1297.07" y="289.434">Crossproduct</tspan>
        <tspan x="1297.07" y="305.434">solver(s)</tspan>
      </text>
    </g>
    <g>
      <line style="fill: none; stroke-opacity: 1; stroke-width: 2; stroke: #000000" x1="1160" y1="390" x2="1201.12" y2="330.713"/>
      <polygon style="fill: #000000; fill-opacity: 1; stroke-opacity: 1; stroke-width: 2; stroke: #000000" fill-rule="evenodd" points="1205.23,333.562 1206.82,322.495 1197.01,327.863 "/>
    </g>
    <g>
      <path style="fill: none; stroke-opacity: 1; stroke-width: 2; stroke-dasharray: 4; stroke: #000000" d="M 305,113.375 A 940.356,940.356 0 0 1 1219.68,234.875"/>
      <polygon style="fill: #000000; fill-opacity: 1; stroke-opacity: 1; stroke-width: 2; stroke: #000000" fill-rule="evenodd" points="1216.67,238.784 1227.64,240.927 1222.77,230.863 "/>
    </g>
    <g>
      <line style="fill: none; stroke-opacity: 1; stroke-width: 2; stroke: #000000" x1="1334.21" y1="225.597" x2="1370.46" y2="145.644"/>
      <polygon style="fill: #000000; fill-opacity: 1; stroke-opacity: 1; stroke-width: 2; stroke: #000000" fill-rule="evenodd" points="1375.01,147.708 1374.59,136.536 1365.9,143.579 "/>
    </g>
    <g>
      <ellipse style="fill: #ffffff; fill-opacity: 1; stroke-opacity: 1; stroke-width: 2; stroke: #000000" cx="657.067" cy="493.534" rx="97.0673" ry="73.5336"/>
      <text font-size="12.7998" style="fill: #000000; fill-opacity: 1; stroke: none;text-anchor:middle;font-family:sans-serif;font-style:normal;font-weight:normal" x="657.067" y="473.434">
        <tspan x="657.067" y="473.434">sva and</tspan>
        <tspan x="657.067" y="489.434">variants</tspan>
        <tspan x="657.067" y="505.434">(iSVA/smartSVA/etc)</tspan>
        <tspan x="657.067" y="521.434"></tspan>
      </text>
    </g>
    <g>
      <line style="fill: none; stroke-opacity: 1; stroke-width: 2; stroke: #000000" x1="613.312" y1="203.371" x2="759.135" y2="295.655"/>
      <polygon style="fill: #000000; fill-opacity: 1; stroke-opacity: 1; stroke-width: 2; stroke: #000000" fill-rule="evenodd" points="756.462,299.88 767.585,301.003 761.809,291.43 "/>
    </g>
    <g>
      <line style="fill: none; stroke-opacity: 1; stroke-width: 2; stroke: #000000" x1="584.427" y1="220.6" x2="653.302" y2="409.664"/>
      <polygon style="fill: #000000; fill-opacity: 1; stroke-opacity: 1; stroke-width: 2; stroke: #000000" fill-rule="evenodd" points="648.604,411.376 656.725,419.06 658,407.953 "/>
    </g>
    <g>
      <line style="fill: none; stroke-opacity: 1; stroke-width: 2; stroke: #000000" x1="754.135" y1="493.534" x2="1009.45" y2="418.116"/>
      <polygon style="fill: #000000; fill-opacity: 1; stroke-opacity: 1; stroke-width: 2; stroke: #000000" fill-rule="evenodd" points="1010.87,422.911 1019.04,415.283 1008.03,413.321 "/>
    </g>
    <text font-size="13.5467" style="fill: #000000; fill-opacity: 1; stroke: none;text-anchor:start;font-family:Arial;font-style:normal;font-weight:normal" x="180" y="-120">
      <tspan x="180" y="-120"></tspan>
    </text>
    <text font-size="20.32" style="fill: #000000; fill-opacity: 1; stroke: none;text-anchor:start;font-family:Arial;font-style:normal;font-weight:normal" x="200" y="-120">
      <tspan x="200" y="-120">A</tspan>
    </text>
    <text font-size="20.32" style="fill: #000000; fill-opacity: 1; stroke: none;text-anchor:start;font-family:Arial;font-style:normal;font-weight:normal" x="201.414" y="-107.071">
      <tspan x="201.414" y="-107.071"></tspan>
      <tspan x="201.414" y="-81.6711">B</tspan>
    </text>
    <text font-size="20.32" style="fill: #000000; fill-opacity: 1; stroke: none;text-anchor:start;font-family:Arial;font-style:normal;font-weight:normal" x="201.213" y="-15.7574">
      <tspan x="201.213" y="-15.7574">C</tspan>
    </text>
    <text font-size="20.32" style="fill: #000000; fill-opacity: 1; stroke: none;text-anchor:start;font-family:Arial;font-style:normal;font-weight:normal" x="600" y="80">
      <tspan x="600" y="80">A</tspan>
    </text>
    <text font-size="20.32" style="fill: #000000; fill-opacity: 1; stroke: none;text-anchor:start;font-family:Arial;font-style:normal;font-weight:normal" x="740" y="120">
      <tspan x="740" y="120"></tspan>
      <tspan x="740" y="145.4">B</tspan>
    </text>
    <text font-size="20.32" style="fill: #000000; fill-opacity: 1; stroke: none;text-anchor:start;font-family:Arial;font-style:normal;font-weight:normal" x="700" y="226.059">
      <tspan x="700" y="226.059"></tspan>
      <tspan x="700" y="251.459">B</tspan>
    </text>
    <text font-size="20.32" style="fill: #000000; fill-opacity: 1; stroke: none;text-anchor:start;font-family:Arial;font-style:normal;font-weight:normal" x="627.071" y="327.272">
      <tspan x="627.071" y="327.272">C</tspan>
    </text>
    <text font-size="22.5778" style="fill: #000000; fill-opacity: 1; stroke: none;text-anchor:start;font-family:Arial;font-style:normal;font-weight:normal" x="60" y="155">
      <tspan x="60" y="155">2</tspan>
    </text>
    <text font-size="22.5778" style="fill: #000000; fill-opacity: 1; stroke: none;text-anchor:start;font-family:Arial;font-style:normal;font-weight:normal" x="64.3431" y="43.4315">
      <tspan x="64.3431" y="43.4315">1</tspan>
    </text>
    <text font-size="22.5778" style="fill: #000000; fill-opacity: 1; stroke: none;text-anchor:start;font-family:Arial;font-style:normal;font-weight:normal" x="1080" y="371">
      <tspan x="1080" y="371">3</tspan>
    </text>
    <g>
      <rect style="fill: #ffffff; fill-opacity: 1; stroke-opacity: 1; stroke-width: 2; stroke: #000000" x="1660" y="11" width="120" height="109" rx="0" ry="0"/>
      <text font-size="12.7998" style="fill: #000000; fill-opacity: 1; stroke: none;text-anchor:middle;font-family:sans-serif;font-style:normal;font-weight:normal" x="1720" y="69.4">
        <tspan x="1720" y="69.4"></tspan>
      </text>
    </g>
    <text font-size="13.5467" style="fill: #000000; fill-opacity: 1; stroke: none;text-anchor:start;font-family:Arial;font-style:normal;font-weight:normal" x="1720" y="65.5">
      <tspan x="1720" y="65.5"></tspan>
    </text>
    <text font-size="13.5467" style="fill: #000000; fill-opacity: 1; stroke: none;text-anchor:start;font-family:Arial;font-style:normal;font-weight:normal" x="1700" y="60">
      <tspan x="1700" y="60"></tspan>
    </text>
    <text font-size="13.5467" style="fill: #000000; fill-opacity: 1; stroke: none;text-anchor:start;font-family:Arial;font-style:normal;font-weight:normal" x="1720" y="65.5">
      <tspan x="1720" y="65.5"></tspan>
    </text>
    <text font-size="13.5467" style="fill: #000000; fill-opacity: 1; stroke: none;text-anchor:start;font-family:Arial;font-style:normal;font-weight:normal" x="1720" y="65.5">
      <tspan x="1720" y="65.5"></tspan>
    </text>
    <text font-size="22.5778" style="fill: #000000; fill-opacity: 1; stroke: none;text-anchor:start;font-family:Arial;font-style:normal;font-weight:normal" x="1688" y="58">
      <tspan x="1688" y="58">Mix of</tspan>
      <tspan x="1688" y="86.2222">1,2,3,4</tspan>
    </text>
    <g>
      <polygon style="fill: #ffffff; fill-opacity: 1; stroke-opacity: 1; stroke-width: 2; stroke: #000000" fill-rule="evenodd" points="1995.54,-3 2111.08,65.914 1995.54,134.828 1880,65.914 "/>
      <text font-size="12.7998" style="fill: #000000; fill-opacity: 1; stroke: none;text-anchor:middle;font-family:sans-serif;font-style:normal;font-weight:normal" x="1995.54" y="69.814">
        <tspan x="1995.54" y="69.814">Plotters/analyses</tspan>
      </text>
    </g>
    <g>
      <line style="fill: none; stroke-opacity: 1; stroke-width: 2; stroke: #000000" x1="1780" y1="65.5" x2="1869" y2="65.8685"/>
      <polygon style="fill: #000000; fill-opacity: 1; stroke-opacity: 1; stroke-width: 2; stroke: #000000" fill-rule="evenodd" points="1868.98,70.8684 1879,65.9099 1869.02,60.8685 "/>
    </g>
    <g>
      <line style="fill: none; stroke-opacity: 1; stroke-width: 2; stroke: #000000" x1="2053.31" y1="31.457" x2="2119.38" y2="-30.7836"/>
      <polygon style="fill: #000000; fill-opacity: 1; stroke-opacity: 1; stroke-width: 2; stroke: #000000" fill-rule="evenodd" points="2122.81,-27.1441 2126.66,-37.6406 2115.95,-34.423 "/>
    </g>
    <g>
      <ellipse style="fill: #ffffff; fill-opacity: 1; stroke-opacity: 1; stroke-width: 2; stroke: #000000" cx="2217.07" cy="-66.4664" rx="97.0673" ry="73.5336"/>
      <text font-size="12.7998" style="fill: #000000; fill-opacity: 1; stroke: none;text-anchor:middle;font-family:sans-serif;font-style:normal;font-weight:normal" x="2217.07" y="-62.5664">
        <tspan x="2217.07" y="-62.5664">PC plots</tspan>
      </text>
    </g>
    <text font-size="22.5778" style="fill: #000000; fill-opacity: 1; stroke: none;text-anchor:start;font-family:Arial;font-style:normal;font-weight:normal" x="1400" y="53">
      <tspan x="1400" y="53">4</tspan>
    </text>
    <g>
      <ellipse style="fill: #ffffff; fill-opacity: 1; stroke-opacity: 1; stroke-width: 2; stroke: #000000" cx="2277.07" cy="93.5336" rx="97.0673" ry="73.5336"/>
      <text font-size="12.7998" style="fill: #000000; fill-opacity: 1; stroke: none;text-anchor:middle;font-family:sans-serif;font-style:normal;font-weight:normal" x="2277.07" y="97.4336">
        <tspan x="2277.07" y="97.4336">Distribution plots</tspan>
      </text>
    </g>
    <g>
      <ellipse style="fill: #ffffff; fill-opacity: 1; stroke-opacity: 1; stroke-width: 2; stroke: #000000" cx="2137.07" cy="233.534" rx="97.0673" ry="73.5336"/>
      <text font-size="12.7998" style="fill: #000000; fill-opacity: 1; stroke: none;text-anchor:middle;font-family:sans-serif;font-style:normal;font-weight:normal" x="2137.07" y="229.434">
        <tspan x="2137.07" y="229.434">Heatmap/clustering</tspan>
        <tspan x="2137.07" y="245.434">plots</tspan>
      </text>
    </g>
    <g>
      <ellipse style="fill: #ffffff; fill-opacity: 1; stroke-opacity: 1; stroke-width: 2; stroke: #000000" cx="2037.07" cy="-166.466" rx="97.0673" ry="73.5336"/>
      <text font-size="12.7998" style="fill: #000000; fill-opacity: 1; stroke: none;text-anchor:middle;font-family:sans-serif;font-style:normal;font-weight:normal" x="2037.07" y="-162.566">
        <tspan x="2037.07" y="-162.566">Variance plots</tspan>
      </text>
    </g>
    <g>
      <ellipse style="fill: #ffffff; fill-opacity: 1; stroke-opacity: 1; stroke-width: 2; stroke: #000000" cx="1917.07" cy="253.534" rx="97.0673" ry="73.5336"/>
      <text font-size="12.7998" style="fill: #000000; fill-opacity: 1; stroke: none;text-anchor:middle;font-family:sans-serif;font-style:normal;font-weight:normal" x="1917.07" y="257.434">
        <tspan x="1917.07" y="257.434">ETC...</tspan>
      </text>
    </g>
    <g>
      <line style="fill: none; stroke-opacity: 1; stroke-width: 2; stroke: #000000" x1="1995.54" y1="-3" x2="2032.46" y2="-82.9459"/>
      <polygon style="fill: #000000; fill-opacity: 1; stroke-opacity: 1; stroke-width: 2; stroke: #000000" fill-rule="evenodd" points="2037,-80.8499 2036.65,-92.0248 2027.92,-85.042 "/>
    </g>
    <g>
      <line style="fill: none; stroke-opacity: 1; stroke-width: 2; stroke: #000000" x1="2111.08" y1="65.914" x2="2169.79" y2="89.4416"/>
      <polygon style="fill: #000000; fill-opacity: 1; stroke-opacity: 1; stroke-width: 2; stroke: #000000" fill-rule="evenodd" points="2167.93,94.0827 2179.07,93.1616 2171.65,84.8004 "/>
    </g>
    <g>
      <line style="fill: none; stroke-opacity: 1; stroke-width: 2; stroke: #000000" x1="2053.31" y1="100.371" x2="2093.53" y2="156.648"/>
      <polygon style="fill: #000000; fill-opacity: 1; stroke-opacity: 1; stroke-width: 2; stroke: #000000" fill-rule="evenodd" points="2089.46,159.555 2099.34,164.784 2097.59,153.741 "/>
    </g>
    <g>
      <line style="fill: none; stroke-opacity: 1; stroke-width: 2; stroke: #000000" x1="1937.77" y1="100.371" x2="1919.84" y2="169.354"/>
      <polygon style="fill: #000000; fill-opacity: 1; stroke-opacity: 1; stroke-width: 2; stroke: #000000" fill-rule="evenodd" points="1915,168.096 1917.32,179.032 1924.67,170.612 "/>
    </g>
    <g>
      <rect style="fill: #ffffff; fill-opacity: 1; stroke-opacity: 1; stroke-width: 2; stroke: #000000" x="1600" y="560" width="120" height="109" rx="0" ry="0"/>
      <text font-size="12.7998" style="fill: #000000; fill-opacity: 1; stroke: none;text-anchor:middle;font-family:sans-serif;font-style:normal;font-weight:normal" x="1660" y="618.4">
        <tspan x="1660" y="618.4"></tspan>
      </text>
      <text font-size="22.5778" style="fill: #000000; fill-opacity: 1; stroke: none;text-anchor:start;font-family:Arial;font-style:normal;font-weight:normal" x="1624" y="598">
        <tspan x="1624" y="598">1,2 (+3)</tspan>
        <tspan xml:space="preserve" x="1624" y="626.222">  or</tspan>
        <tspan xml:space="preserve" x="1624" y="654.444"> 4*</tspan>
      </text>
      <polygon style="fill: #ffffff; fill-opacity: 1; stroke-opacity: 1; stroke-width: 2; stroke: #000000" fill-rule="evenodd" points="1915.54,546 2031.08,614.914 1915.54,683.828 1800,614.914 "/>
      <text font-size="12.7998" style="fill: #000000; fill-opacity: 1; stroke: none;text-anchor:middle;font-family:sans-serif;font-style:normal;font-weight:normal" x="1915.54" y="618.814">
        <tspan x="1915.54" y="618.814">DE Tools</tspan>
      </text>
      <line style="fill: none; stroke-opacity: 1; stroke-width: 2; stroke: #000000" x1="1720" y1="614.5" x2="1789" y2="614.857"/>
      <polygon style="fill: #000000; fill-opacity: 1; stroke-opacity: 1; stroke-width: 2; stroke: #000000" fill-rule="evenodd" points="1788.97,619.857 1799,614.909 1789.03,609.857 "/>
      <line style="fill: none; stroke-opacity: 1; stroke-width: 2; stroke: #000000" x1="2031.08" y1="614.914" x2="2057" y2="614.557"/>
      <polygon style="fill: #000000; fill-opacity: 1; stroke-opacity: 1; stroke-width: 2; stroke: #000000" fill-rule="evenodd" points="2057.07,619.556 2067,614.419 2056.93,609.557 "/>
      <g>
        <ellipse style="fill: #ffffff; fill-opacity: 1; stroke-opacity: 1; stroke-width: 2; stroke: #000000" cx="2165.07" cy="534.2" rx="97.3377" ry="73.7385"/>
        <text font-size="12.7998" style="fill: #000000; fill-opacity: 1; stroke: none;text-anchor:middle;font-family:sans-serif;font-style:normal;font-weight:normal" x="2165.07" y="538.1">
          <tspan x="2165.07" y="538.1"></tspan>
        </text>
      </g>
      <g>
        <ellipse style="fill: #ffffff; fill-opacity: 1; stroke-opacity: 1; stroke-width: 2; stroke: #000000" cx="2165.34" cy="574.405" rx="97.3377" ry="73.7385"/>
        <text font-size="12.7998" style="fill: #000000; fill-opacity: 1; stroke: none;text-anchor:middle;font-family:sans-serif;font-style:normal;font-weight:normal" x="2165.34" y="578.305">
          <tspan x="2165.34" y="578.305"></tspan>
        </text>
      </g>
      <g>
        <ellipse style="fill: #ffffff; fill-opacity: 1; stroke-opacity: 1; stroke-width: 2; stroke: #000000" cx="2165.34" cy="614.405" rx="97.3377" ry="73.7385"/>
        <text font-size="12.7998" style="fill: #000000; fill-opacity: 1; stroke: none;text-anchor:middle;font-family:sans-serif;font-style:normal;font-weight:normal" x="2165.34" y="618.305">
          <tspan x="2165.34" y="618.305"></tspan>
        </text>
      </g>
      <g>
        <ellipse style="fill: #ffffff; fill-opacity: 1; stroke-opacity: 1; stroke-width: 2; stroke: #000000" cx="2165.34" cy="654.405" rx="97.3377" ry="73.7385"/>
        <text font-size="12.7998" style="fill: #000000; fill-opacity: 1; stroke: none;text-anchor:middle;font-family:sans-serif;font-style:normal;font-weight:normal" x="2165.34" y="658.305">
          <tspan x="2165.34" y="658.305"></tspan>
        </text>
      </g>
      <g>
        <ellipse style="fill: #ffffff; fill-opacity: 1; stroke-opacity: 1; stroke-width: 2; stroke: #000000" cx="2165.34" cy="694.405" rx="97.3377" ry="73.7385"/>
        <text font-size="12.7998" style="fill: #000000; fill-opacity: 1; stroke: none;text-anchor:middle;font-family:sans-serif;font-style:normal;font-weight:normal" x="2165.34" y="698.305">
          <tspan x="2165.34" y="698.305"></tspan>
        </text>
      </g>
      <text font-size="13.5467" style="fill: #000000; fill-opacity: 1; stroke: none;text-anchor:start;font-family:Arial;font-style:normal;font-weight:normal" x="2146.67" y="494.667">
        <tspan x="2146.67" y="494.667">Basic</tspan>
      </text>
      <text font-size="13.5467" style="fill: #000000; fill-opacity: 1; stroke: none;text-anchor:start;font-family:Arial;font-style:normal;font-weight:normal" x="2140.67" y="528">
        <tspan x="2140.67" y="528">DESeq2</tspan>
      </text>
      <text font-size="13.5467" style="fill: #000000; fill-opacity: 1; stroke: none;text-anchor:start;font-family:Arial;font-style:normal;font-weight:normal" x="2142" y="568">
        <tspan x="2142" y="568">EBSeq</tspan>
      </text>
      <text font-size="13.5467" style="fill: #000000; fill-opacity: 1; stroke: none;text-anchor:start;font-family:Arial;font-style:normal;font-weight:normal" x="2148" y="600.667">
        <tspan x="2148" y="600.667">limma</tspan>
      </text>
      <text font-size="13.5467" style="fill: #000000; fill-opacity: 1; stroke: none;text-anchor:start;font-family:Arial;font-style:normal;font-weight:normal" x="2148" y="660.667">
        <tspan x="2148" y="660.667">EdgeR</tspan>
      </text>
      <path style="fill: #ffffff; fill-opacity: 1; stroke-opacity: 1; stroke-width: 2; stroke: #000000" fill-rule="evenodd" d="M 2320 560 C 2348,545 2362,540 2390,540 C 2418,540 2432,545 2460,560 L 2460,640 C 2432,655 2418,660 2390,660 C 2362,660 2348,655 2320,640 L 2320,560z"/>
      <path style="fill: none; stroke-opacity: 1; stroke-width: 2; stroke: #000000" d="M 2320 560 C 2348,575 2362,580 2390,580 C 2418,580 2432,575 2460,560"/>
      <text font-size="12.7998" style="fill: #000000; fill-opacity: 1; stroke: none;text-anchor:middle;font-family:sans-serif;font-style:normal;font-weight:normal" x="2390" y="598">
        <tspan x="2390" y="598">Metrics of</tspan>
        <tspan x="2390" y="614">Differential</tspan>
        <tspan x="2390" y="630">Expression</tspan>
      </text>
      <line style="fill: none; stroke-opacity: 1; stroke-width: 2; stroke: #000000" x1="2262.68" y1="614.405" x2="2309" y2="614.886"/>
      <polygon style="fill: #000000; fill-opacity: 1; stroke-opacity: 1; stroke-width: 2; stroke: #000000" fill-rule="evenodd" points="2308.95,619.886 2319,614.99 2309.05,609.886 "/>
    </g>
  </g>
</svg>
